# xmcd
#
# Track frame offsets:
# 150
# 15834
# 31494
# 43934
# 57009
# 72518
# 84387
# 95856
# 113527
# 126040
# 138048
# 151608
# 171415
# 186666
# 203151
# 215191
# 230131
#
# Disc length: 3209 seconds
#
#
# Revision: 0
# Processed by: cddbd v1.5.2PL0 Copyright (c) Steve Scherf et al.
# Submitted via: FreeRIP 2.951 
#
DISCID=f00c8711
DTITLE=Vários - Super Coletânea Sertaneja
DYEAR=1900
DGENRE=Sertanejo
TTITLE0=Meu cajuzinho
TTITLE1=Som rural
TTITLE2=Boate azul
TTITLE3=Do jeito que ela gosta
TTITLE4=Sem você não dá
TTITLE5=Pisou na bola
TTITLE6=Problema de galã
TTITLE7=Fica comigo outra vez
TTITLE8=A moda do genro
TTITLE9=Karaokê
TTITLE10=Pula, pula coração
TTITLE11=Coração dividido
TTITLE12=O berranteiro
TTITLE13=Isto é paixão
TTITLE14=O Chano e a chana
TTITLE15=Tô morrendo de saudade
TTITLE16=Dói coração
EXTD=
EXTT0=Peão e Praense
EXTT1=Jacó e Jacozinho
EXTT2=Joaquim e Manoel
EXTT3=Billy Nelson
EXTT4=Ederson e Emerson
EXTT5=Tony Sobrinho
EXTT6=Peão e Praense
EXTT7=Jefferson Farias e Júlia
EXTT8=Jacó e Jacozinho
EXTT9=Silvano e Santarém
EXTT10=Joaquim e Manoel
EXTT11=Miltinho Rodrigues
EXTT12=Billy Nelson
EXTT13=Ederson e Emerson
EXTT14=Tony Sobrinho
EXTT15=Jefferson Farias e Julian
EXTT16=Silvano e Santarém
PLAYORDER=
